<?xml version="1.0" standalone="no"?>
<!DOCTYPE svg PUBLIC "-//W3C//DTD SVG 20010904//EN"
 "http://www.w3.org/TR/2001/REC-SVG-20010904/DTD/svg10.dtd">
<svg version="1.0" xmlns="http://www.w3.org/2000/svg"
 width="409.000000pt" height="409.000000pt" viewBox="0 0 409.000000 409.000000"
 preserveAspectRatio="xMidYMid meet">
<metadata>
Created by potrace 1.11, written by Peter Selinger 2001-2013
</metadata>
<g transform="translate(0.000000,409.000000) scale(0.100000,-0.100000)"
fill="#000000" stroke="none">
<path d="M0 2050 l0 -1780 2045 0 2045 0 0 1780 0 1780 -2045 0 -2045 0 0
-1780z m2267 1397 c48 -30 140 -81 203 -115 l115 -61 199 -348 c150 -262 196
-351 189 -362 -5 -9 -97 -168 -203 -353 l-193 -338 -401 0 -401 0 -198 113
-197 112 -200 350 c-110 192 -196 352 -192 356 4 4 174 12 377 18 204 6 422
14 486 17 l115 6 99 322 c97 320 103 336 110 336 2 0 43 -24 92 -53z m-1640
-2047 c30 -13 48 -30 60 -55 20 -43 12 -54 -46 -62 -37 -5 -41 -3 -41 15 0 12
-12 29 -26 38 -23 16 -27 16 -41 1 -25 -25 -9 -59 57 -116 75 -65 94 -100 87
-158 -16 -144 -228 -170 -299 -37 -26 50 -21 61 35 74 34 7 35 6 41 -24 9 -44
31 -68 62 -68 28 0 44 16 44 46 0 10 -33 50 -74 90 -43 41 -78 83 -82 99 -30
124 98 214 223 157z m245 5 c3 -3 0 -24 -6 -46 l-10 -40 -51 3 c-49 3 -50 4
-53 37 -2 20 2 37 10 42 14 9 101 12 110 4z m1033 -237 c-4 -128 -8 -234 -9
-234 0 -1 -22 -4 -47 -8 l-46 -7 -6 73 c-4 40 -10 146 -13 234 -8 184 -14 171
79 173 l49 1 -7 -232z m770 218 c60 -25 74 -92 30 -144 l-25 -30 35 -20 c38
-23 50 -55 41 -107 -19 -102 -155 -163 -265 -119 l-39 16 -7 71 c-3 40 -5 128
-3 196 l3 124 35 13 c48 17 153 17 195 0z m249 -218 c-4 -128 -7 -234 -8 -234
0 -1 -22 -4 -47 -8 l-46 -7 -6 53 c-3 29 -9 133 -13 231 -8 204 -11 197 74
197 l52 0 -6 -232z m-1580 123 c10 -11 21 -35 26 -54 9 -40 -3 -192 -21 -261
l-11 -45 -47 5 c-73 9 -70 5 -54 81 7 37 15 97 16 133 2 52 -1 65 -14 68 -21
4 -36 -36 -44 -121 -11 -128 -11 -127 -66 -127 -26 0 -50 4 -54 9 -3 6 0 51 7
101 13 103 5 128 -32 95 -17 -16 -20 -30 -20 -110 l0 -93 -46 -7 c-25 -3 -48
-5 -50 -2 -5 5 -20 131 -29 244 l-7 81 44 7 c25 4 56 5 69 3 21 -3 24 -8 21
-37 l-4 -34 27 21 c39 31 81 37 112 16 20 -12 28 -14 31 -5 7 21 65 51 98 51
18 0 38 -8 48 -19z m226 -7 c0 -12 5 -12 30 1 63 33 113 10 128 -59 27 -126
-48 -256 -146 -256 l-33 0 7 -69 c6 -66 5 -68 -17 -74 -13 -4 -36 -7 -50 -7
-26 0 -26 2 -33 83 -14 188 -17 314 -9 352 8 37 12 40 48 45 51 7 75 1 75 -16z
m593 5 c51 -14 71 -46 65 -109 -3 -28 -8 -54 -12 -58 -4 -3 -41 -8 -83 -10
l-75 -4 6 -36 c7 -47 29 -70 50 -53 8 7 18 21 21 32 8 24 22 24 63 -1 29 -18
31 -22 20 -40 -32 -51 -148 -76 -208 -45 -63 32 -79 130 -36 220 26 57 47 78
96 99 42 18 45 19 93 5z m1038 -15 c110 -56 53 -285 -78 -312 -71 -15 -112 2
-141 58 -40 77 -17 183 50 233 52 39 119 48 169 21z m-2345 -31 c-3 -21 -11
-93 -17 -160 l-12 -122 -38 -6 c-21 -4 -43 -4 -49 0 -13 8 -14 254 -1 289 11
27 26 33 85 35 l39 1 -7 -37z m2719 25 c3 -3 11 -57 17 -120 10 -99 9 -124 -5
-182 -21 -84 -45 -119 -99 -141 -60 -24 -119 -13 -153 26 -33 40 -32 52 10 72
50 24 62 21 69 -13 12 -61 66 -19 66 51 0 15 -4 16 -33 7 -41 -13 -98 9 -123
47 -23 35 -29 113 -14 161 26 82 71 106 183 101 42 -2 79 -6 82 -9z"/>
<path d="M2136 3309 c-100 -316 -145 -474 -138 -480 4 -4 87 -52 184 -107
l177 -100 15 47 c78 244 88 284 76 310 -13 30 -237 426 -256 455 -11 16 -18 0
-58 -125z"/>
<path d="M2228 3418 c11 -18 72 -122 135 -230 l114 -198 26 88 c15 48 33 108
41 134 l15 47 -82 42 c-45 23 -109 59 -143 80 -33 20 -76 45 -94 54 l-33 17
21 -34z"/>
<path d="M2507 3018 c-36 -117 -80 -261 -98 -320 l-32 -108 -71 0 c-106 0
-888 -29 -892 -33 -2 -2 81 -151 185 -333 l188 -329 389 -2 389 -3 194 342
c190 333 193 341 179 367 -9 14 -91 159 -183 321 -93 162 -171 299 -175 303
-4 4 -36 -88 -73 -205z"/>
<path d="M1390 2795 c-184 -7 -337 -13 -340 -14 -3 -1 74 -45 170 -99 l175
-99 380 13 c209 7 418 15 463 16 l84 3 -174 97 -173 98 -125 -2 c-69 0 -276
-7 -460 -13z"/>
<path d="M1047 2728 c10 -20 92 -167 183 -327 l165 -291 118 0 119 0 -35 63
c-20 34 -77 136 -129 226 l-93 164 -140 79 c-77 44 -155 89 -173 100 l-34 21
19 -35z"/>
<path d="M1455 2078 c11 -6 81 -46 156 -88 l135 -76 -49 88 -49 88 -107 0
c-84 -1 -102 -3 -86 -12z"/>
<path d="M2555 1284 c-4 -31 -4 -59 0 -62 10 -10 39 13 53 42 12 23 11 31 -2
52 -27 40 -43 30 -51 -32z"/>
<path d="M2563 1143 c-9 -3 -13 -26 -13 -64 0 -56 1 -59 25 -59 57 0 88 83 43
114 -23 16 -34 18 -55 9z"/>
<path d="M1570 1204 c-8 -8 -15 -51 -18 -95 -4 -73 -3 -79 15 -79 25 0 43 39
50 107 8 69 -17 104 -47 67z"/>
<path d="M2085 1208 c-15 -37 -12 -48 15 -48 12 0 21 10 25 30 12 56 -18 69
-40 18z"/>
<path d="M3090 1201 c-16 -30 -13 -144 5 -167 15 -19 15 -19 30 0 15 20 21
138 9 170 -8 22 -31 20 -44 -3z"/>
<path d="M3423 1198 c-4 -7 -7 -39 -7 -71 1 -45 6 -63 21 -79 40 -39 50 -6 37
110 -5 41 -11 52 -25 52 -10 0 -21 -6 -26 -12z"/>
</g>
</svg>
